<svg xmlns="http://www.w3.org/2000/svg" viewBox="0 0 64 64">
  <defs>
    <radialGradient id="g" cx="50%" cy="42%" r="60%">
      <stop offset="0%" stop-color="#f2d98a"/>
      <stop offset="55%" stop-color="#c9b8d6"/>
      <stop offset="100%" stop-color="#2a211c"/>
    </radialGradient>
  </defs>
  <rect width="64" height="64" rx="6" fill="url(#g)"/>
  <g fill="#1a1410">
    <rect x="6" y="6" width="4" height="4" opacity="0.7"/>
    <rect x="14" y="6" width="4" height="4" opacity="0.7"/>
    <rect x="22" y="6" width="4" height="4" opacity="0.7"/>
    <rect x="30" y="6" width="4" height="4" opacity="0.7"/>
    <rect x="38" y="6" width="4" height="4" opacity="0.7"/>
    <rect x="46" y="6" width="4" height="4" opacity="0.7"/>
    <rect x="54" y="6" width="4" height="4" opacity="0.7"/>
    <rect x="6" y="54" width="4" height="4" opacity="0.7"/>
    <rect x="14" y="54" width="4" height="4" opacity="0.7"/>
    <rect x="22" y="54" width="4" height="4" opacity="0.7"/>
    <rect x="30" y="54" width="4" height="4" opacity="0.7"/>
    <rect x="38" y="54" width="4" height="4" opacity="0.7"/>
    <rect x="46" y="54" width="4" height="4" opacity="0.7"/>
    <rect x="54" y="54" width="4" height="4" opacity="0.7"/>
  </g>
  <text x="32" y="40" font-family="Georgia, serif" font-size="26" font-weight="700" text-anchor="middle" fill="#2a211c">D&amp;G</text>
</svg>
